<?xml version="1.0" encoding="UTF-8" standalone="no"?>
<svg
   xmlns="http://www.w3.org/2000/svg"
   xmlns:xlink="http://www.w3.org/1999/xlink"
   id="Layer_1"
   viewBox="0 0 1.12 1.12"
   width="40"
   height="40"
   version="1.1">
  <defs
     id="defs3919">
    <linearGradient
       xlink:href="#SVGID_4_"
       id="linearGradient4955"
       gradientUnits="userSpaceOnUse"
       gradientTransform="matrix(0.01798838,0,0,-0.01662534,-0.12648184,1.0817484)"
       x1="63.250999"
       y1="14.642"
       x2="23.936438"
       y2="60.042263" />
  </defs>
  <style
     id="style3866">.st0{fill:url(#SVGID_1_)}.st1{fill:url(#SVGID_2_)}.st2{fill:url(#SVGID_3_)}.st3{fill:url(#SVGID_4_)}.st4{fill:#fff}</style>
  <linearGradient
     id="SVGID_1_"
     gradientUnits="userSpaceOnUse"
     x1="0.551"
     y1="25.16"
     x2="29.941"
     y2="63.98"
     gradientTransform="matrix(1,0,0,-1,0,72)">
    <stop
       offset=".016"
       stop-color="#765af8"
       id="stop3868" />
    <stop
       offset=".382"
       stop-color="#b345f1"
       id="stop3870" />
    <stop
       offset=".758"
       stop-color="#fa3293"
       id="stop3872" />
    <stop
       offset=".941"
       stop-color="#ff318c"
       id="stop3874" />
  </linearGradient>
  <linearGradient
     id="SVGID_2_"
     gradientUnits="userSpaceOnUse"
     x1="2.7090001"
     y1="23.636999"
     x2="32.051998"
     y2="62.394001"
     gradientTransform="matrix(1,0,0,-1,0,72)">
    <stop
       offset=".016"
       stop-color="#765af8"
       id="stop3879" />
    <stop
       offset=".382"
       stop-color="#b345f1"
       id="stop3881" />
    <stop
       offset=".758"
       stop-color="#fa3293"
       id="stop3883" />
    <stop
       offset=".941"
       stop-color="#ff318c"
       id="stop3885" />
  </linearGradient>
  <linearGradient
     id="SVGID_3_"
     gradientUnits="userSpaceOnUse"
     x1="50.855999"
     y1="25.594999"
     x2="34.272999"
     y2="64.952003"
     gradientTransform="matrix(1,0,0,-1,0,72)">
    <stop
       offset=".183"
       stop-color="#765af8"
       id="stop3890" />
    <stop
       offset=".238"
       stop-color="#8655f6"
       id="stop3892" />
    <stop
       offset=".345"
       stop-color="#9f4cf3"
       id="stop3894" />
    <stop
       offset=".443"
       stop-color="#ae47f2"
       id="stop3896" />
    <stop
       offset=".522"
       stop-color="#b345f1"
       id="stop3898" />
  </linearGradient>
  <linearGradient
     id="SVGID_4_"
     gradientUnits="userSpaceOnUse"
     x1="63.250999"
     y1="14.642"
     x2="23.936438"
     y2="60.042263"
     gradientTransform="matrix(0.01989618,0,0,-0.02164466,-0.30587444,2.1265977)">
    <stop
       offset=".016"
       stop-color="#765af8"
       id="stop3903"
       style="stop-color:#00629b;stop-opacity:1" />
    <stop
       offset=".382"
       stop-color="#b345f1"
       id="stop3905"
       style="stop-color:#00a9e0;stop-opacity:1" />
  </linearGradient>
  <path
     class="st3"
     d="M 0.06956422,0.82230334 0.5574255,1.049016 1.0504358,0.82154337 C 0.9642178,-0.25600208 0.09217306,-0.074368 0.06956422,0.82230334 Z"
     id="path3908"
     style="fill:url(#linearGradient4955);fill-opacity:1;stroke-width:0.01729343" />
  <g
     id="g3914"
     transform="translate(0.10658622,-69.773211)">
    <path
       d="m 0.06369676,69.94278 h 0.77943405 v 0.779434 H 0.06369676 Z"
       id="path3910"
       style="stroke-width:0.01804245" />
    <path
       class="st4"
       d="m 0.13767084,70.57607 h 0.29228775 v 0.04872 H 0.13767084 Z m -0.003609,-0.532252 h 0.13170991 c 0.0775825,0 0.12449292,0.04511 0.12449292,0.111863 v 0.0018 c 0,0.07578 -0.0577359,0.113667 -0.13170992,0.113667 h -0.0541273 v 0.09742 H 0.13406234 Z M 0.26216372,70.2062 c 0.0360849,0 0.0559316,-0.02165 0.0559316,-0.04872 v -0.0018 c 0,-0.03248 -0.0216509,-0.04872 -0.0577359,-0.04872 h -0.0541273 v 0.09923 z m 0.14614388,0.115472 0.0414977,-0.05052 c 0.0288679,0.02345 0.0595401,0.03969 0.0974293,0.03969 0.0288679,0 0.0469104,-0.01082 0.0469104,-0.03067 v -0.0018 c 0,-0.01804 -0.0108256,-0.02706 -0.0649528,-0.0415 -0.0649528,-0.01624 -0.10825473,-0.03428 -0.10825473,-0.09923 v -0.0018 c 0,-0.05954 0.0469104,-0.09743 0.11366746,-0.09743 0.0469104,0 0.088408,0.01443 0.12088445,0.0415 l -0.0378891,0.05413 c -0.0288679,-0.01985 -0.0577359,-0.03248 -0.0847995,-0.03248 -0.0270637,0 -0.0414977,0.01263 -0.0414977,0.02887 v 0.0018 c 0,0.02165 0.0144338,0.02887 0.0703656,0.0433 0.0649528,0.01804 0.10284199,0.0415 0.10284199,0.09743 v 0.0018 c 0,0.06495 -0.0487146,0.101037 -0.11908022,0.101037 -0.0487146,-0.0018 -0.0974292,-0.01985 -0.13712265,-0.05413"
       id="path3912"
       style="fill:#ffffff;stroke-width:0.01804245" />
    <path
       id="path4086"
       d="m 0.13767084,70.57607 h 0.29228775 v 0.04872 H 0.13767084 Z m -0.003609,-0.532252 h 0.13170991 c 0.0775825,0 0.12449292,0.04511 0.12449292,0.111863 v 0.0018 c 0,0.07578 -0.0577359,0.113667 -0.13170992,0.113667 h -0.0541273 v 0.09742 H 0.13406234 Z M 0.26216372,70.2062 c 0.0360849,0 0.0559316,-0.02165 0.0559316,-0.04872 v -0.0018 c 0,-0.03248 -0.0216509,-0.04872 -0.0577359,-0.04872 h -0.0541273 v 0.09923 z m 0.14614388,0.115472 0.0414977,-0.05052 c 0.0288679,0.02345 0.0595401,0.03969 0.0974293,0.03969 0.0288679,0 0.0469104,-0.01082 0.0469104,-0.03067 v -0.0018 c 0,-0.01804 -0.0108256,-0.02706 -0.0649528,-0.0415 -0.0649528,-0.01624 -0.10825473,-0.03428 -0.10825473,-0.09923 v -0.0018 c 0,-0.05954 0.0469104,-0.09743 0.11366746,-0.09743 0.0469104,0 0.088408,0.01443 0.12088445,0.0415 l -0.0378891,0.05413 c -0.0288679,-0.01985 -0.0577359,-0.03248 -0.0847995,-0.03248 -0.0270637,0 -0.0414977,0.01263 -0.0414977,0.02887 v 0.0018 c 0,0.02165 0.0144338,0.02887 0.0703656,0.0433 0.0649528,0.01804 0.10284199,0.0415 0.10284199,0.09743 v 0.0018 c 0,0.06495 -0.0487146,0.101037 -0.11908022,0.101037 -0.0487146,-0.0018 -0.0974292,-0.01985 -0.13712265,-0.05413"
       class="st4"
       style="fill:#ffffff;fill-opacity:0;stroke-width:0.01804245" />
  </g>
  <rect
     style="fill:#000000;fill-opacity:1;stroke:#000000;stroke-width:0.08920432;stroke-miterlimit:4;stroke-dasharray:none;stroke-opacity:1"
     id="rect45"
     width="0.63742387"
     height="0.40252063"
     x="0.24036704"
     y="0.24392636" />
  <path
     style="fill:#7952b3;fill-rule:evenodd;stroke-width:0.0011184"
     d="m 0.39215247,0.27692104 c -0.0326728,0 -0.0568492,0.028597 -0.0557666,0.05961 0.001039,0.029795 -3.1102e-4,0.068384 -0.0100254,0.099854 -0.009749,0.031558 -0.0252793,0.041754 -0.0521968,0.044321 v 0.048715 c 0.0269175,0.00257 0.0424477,0.012627 0.0521956,0.044189 0.009716,0.031469 0.0110641,0.070059 0.0100254,0.099854 -0.001084,0.031009 0.0230937,0.059611 0.0557721,0.059611 h 0.33478846 c 0.0326728,0 0.0568446,-0.028597 0.0557621,-0.059611 -0.00104,-0.029795 3.1111e-4,-0.068384 0.010025,-0.099854 0.00975,-0.031562 0.026185,-0.041625 0.053104,-0.044189 v -0.048715 c -0.026918,-0.00257 -0.043354,-0.012759 -0.053104,-0.044321 -0.00972,-0.031465 -0.011064,-0.070059 -0.010025,-0.099854 0.00108,-0.031009 -0.023089,-0.05961 -0.0557621,-0.05961 H 0.39214799 Z m 0.26928174,0.2807922 c 0,0.042704 -0.0318531,0.068602 -0.084714,0.068602 h -0.0899839 c -0.00536,0 -0.009706,-0.00435 -0.009706,-0.00971 v -0.223219 c 0,-0.00536 0.004345,-0.00971 0.009706,-0.00971 h 0.0894716 c 0.0440772,0 0.0730045,0.023876 0.0730045,0.060532 0,0.025729 -0.0194601,0.048762 -0.0442516,0.052797 v 0.00134 c 0.0337487,0.0037 0.0564734,0.027076 0.0564734,0.059361 z m -0.0945257,-0.1432665 h -0.0513075 v 0.072472 h 0.0432136 c 0.0334065,0 0.0518265,-0.013452 0.0518265,-0.037497 -3.44e-6,-0.022533 -0.0158398,-0.034976 -0.0437326,-0.034975 z m -0.0513075,0.1012271 v 0.079866 h 0.0531954 c 0.0347821,0 0.0532054,-0.013956 0.0532054,-0.040185 0,-0.026229 -0.0189401,-0.039685 -0.0554422,-0.039685 h -0.0509586 z"
     id="path3761" />
  <rect
     style="fill:#ffffff;fill-opacity:1;stroke:#ffffff;stroke-width:0.04294352;stroke-miterlimit:4;stroke-dasharray:none;stroke-opacity:1"
     id="rect854"
     width="0.60967439"
     height="0.0073643224"
     x="0.25516281"
     y="0.82445264" />
</svg>
